<?xml version="1.0" encoding="UTF-8"?>
<svg width="1200" height="1600" viewBox="0 0 1200 1600" fill="none" xmlns="http://www.w3.org/2000/svg">
  <defs>
    <filter id="shadow" x="80" y="40" width="1040" height="1500" filterUnits="userSpaceOnUse" color-interpolation-filters="sRGB">
      <feDropShadow dx="0" dy="34" stdDeviation="30" flood-color="#06111F" flood-opacity="0.28"/>
    </filter>
    <linearGradient id="gloss" x1="260" y1="140" x2="940" y2="1320" gradientUnits="userSpaceOnUse">
      <stop offset="0" stop-color="#FFFFFF" stop-opacity="0.34"/>
      <stop offset="0.25" stop-color="#FFFFFF" stop-opacity="0.14"/>
      <stop offset="1" stop-color="#FFFFFF" stop-opacity="0"/>
    </linearGradient>
    <linearGradient id="chip" x1="0" y1="0" x2="0" y2="1">
      <stop offset="0" stop-color="#FFF0C8"/>
      <stop offset="1" stop-color="#E6B96F"/>
    </linearGradient>
  </defs>
  
    <ellipse cx="614" cy="1380" rx="292" ry="74" fill="#07111D" opacity="0.16"/>
    <g filter="url(#shadow)">
      <g transform="rotate(-11 602 736)">
        <rect x="176" y="468" width="852" height="472" rx="82" fill="url(#wrapperBody)"/>
        <path d="M176 612C138 598 122 548 150 516C156 510 164 506 176 504V904C161 900 152 892 146 882C118 850 132 800 176 792V612Z" fill="rgba(255,255,255,0.12)"/>
        <path d="M1028 612C1066 598 1082 548 1054 516C1048 510 1040 506 1028 504V904C1043 900 1052 892 1058 882C1086 850 1072 800 1028 792V612Z" fill="rgba(8,18,32,0.12)"/>
        <rect x="256" y="548" width="548" height="304" rx="58" fill="#1A7C71" opacity="0.96"/>
        <rect x="256" y="876" width="300" height="76" rx="28" fill="#B5C757" opacity="0.96"/>
        <text x="406" y="926" text-anchor="middle" fill="#FFFFFF" font-family="&quot;Segoe UI&quot;, Arial, sans-serif" font-size="34" font-weight="800" letter-spacing="0.12em">VEGAN</text>
        <rect x="258" y="500" width="240" height="74" rx="26" fill="#B5C757"/>
        <text x="378" y="548" text-anchor="middle" fill="#FFFFFF" font-family="&quot;Segoe UI&quot;, Arial, sans-serif" font-size="34" font-weight="900" letter-spacing="0.12em">ALDI SPORTS</text>
        <text x="300" y="650" fill="#FFFFFF" font-family="&quot;Segoe UI&quot;, Arial, sans-serif" font-size="66" font-weight="800" letter-spacing="-0.02em"><tspan x="300" dy="0">High Protein</tspan><tspan x="300" dy="62">Riegel Vegan</tspan><tspan x="300" dy="62">Cookies &amp; Cream</tspan></text>
        <circle cx="876" cy="728" r="100" fill="rgba(255,255,255,0.12)"/>
        <text x="876" y="716" text-anchor="middle" fill="#FFFFFF" font-family="&quot;Segoe UI&quot;, Arial, sans-serif" font-size="70" font-weight="900">20</text>
        <text x="876" y="774" text-anchor="middle" fill="#FFFFFF" font-family="&quot;Segoe UI&quot;, Arial, sans-serif" font-size="30" font-weight="800" letter-spacing="0.12em">PROTEIN</text>
        <path d="M186 480C248 422 956 422 1018 480" stroke="rgba(255,255,255,0.18)" stroke-width="16" stroke-linecap="round"/>
        <path d="M184 928C258 988 946 988 1020 928" stroke="rgba(8,18,32,0.14)" stroke-width="18" stroke-linecap="round"/>
      </g>
      <g transform="translate(574 1018)">
        <rect x="0" y="0" width="310" height="126" rx="38" fill="#5D3625"/>
        <rect x="18" y="18" width="274" height="90" rx="28" fill="#7B482E"/>
        <rect x="78" y="0" width="70" height="126" rx="20" fill="#EED1AB"/>
        <rect x="162" y="0" width="66" height="126" rx="20" fill="#E9BE79"/>
        <rect x="244" y="0" width="66" height="126" rx="20" fill="#5D3625"/>
      </g>
      
    <circle cx="828" cy="1086" r="66" fill="#81533C"/>
    <circle cx="828" cy="1086" r="50" fill="#9D6549"/>
    <circle cx="796" cy="1066" r="10" fill="#3E261A"/>
    <circle cx="844" cy="1048" r="10" fill="#3E261A"/>
    <circle cx="864" cy="1090" r="10" fill="#3E261A"/>
    <circle cx="812" cy="1120" r="8" fill="#3E261A"/>
    <circle cx="900" cy="1128" r="30" fill="#F5F5F0"/>
  
      <text x="600" y="1340" text-anchor="middle" fill="#0E1725" font-family="&quot;Segoe UI&quot;, Arial, sans-serif" font-size="36" font-weight="800">Lokales, schnelles Packshot</text>
    </g>
    <defs>
      <linearGradient id="wrapperBody" x1="176" y1="468" x2="1028" y2="940" gradientUnits="userSpaceOnUse">
        <stop offset="0" stop-color="#1E2432"/>
        <stop offset="1" stop-color="#111622"/>
      </linearGradient>
    </defs>
  
</svg>
