<?xml version="1.0" encoding="UTF-8"?>
<svg width="1200" height="1600" viewBox="0 0 1200 1600" fill="none" xmlns="http://www.w3.org/2000/svg">
  <defs>
    <filter id="shadow" x="80" y="40" width="1040" height="1500" filterUnits="userSpaceOnUse" color-interpolation-filters="sRGB">
      <feDropShadow dx="0" dy="34" stdDeviation="30" flood-color="#06111F" flood-opacity="0.28"/>
    </filter>
    <linearGradient id="gloss" x1="260" y1="140" x2="940" y2="1320" gradientUnits="userSpaceOnUse">
      <stop offset="0" stop-color="#FFFFFF" stop-opacity="0.34"/>
      <stop offset="0.25" stop-color="#FFFFFF" stop-opacity="0.14"/>
      <stop offset="1" stop-color="#FFFFFF" stop-opacity="0"/>
    </linearGradient>
    <linearGradient id="chip" x1="0" y1="0" x2="0" y2="1">
      <stop offset="0" stop-color="#FFF0C8"/>
      <stop offset="1" stop-color="#E6B96F"/>
    </linearGradient>
  </defs>
  
    <ellipse cx="600" cy="1430" rx="276" ry="72" fill="#07111D" opacity="0.18"/>
    <g filter="url(#shadow)">
      <path d="M266 180C358 112 842 112 934 180L990 1192C994 1278 920 1364 832 1392C752 1416 449 1416 368 1392C280 1364 206 1278 210 1192L266 180Z" fill="url(#bagBody)"/>
      <path d="M284 198C365 140 835 140 916 198L961 1186C964 1254 905 1322 830 1344C748 1368 452 1368 370 1344C295 1322 236 1254 239 1186L284 198Z" fill="rgba(255,255,255,0.14)"/>
      <path d="M290 206C370 150 830 150 910 206L908 278C828 332 372 332 292 278L290 206Z" fill="rgba(255,255,255,0.18)"/>
      <path d="M264 220C370 134 830 134 936 220" stroke="rgba(255,255,255,0.22)" stroke-width="14" stroke-linecap="round"/>
      <path d="M214 1182C324 1286 876 1286 986 1182" stroke="rgba(8,18,32,0.16)" stroke-width="26" stroke-linecap="round"/>
      <path d="M260 182C348 112 852 112 940 182L932 1268C924 1318 876 1362 818 1378C724 1404 476 1404 382 1378C324 1362 276 1318 268 1268L260 182Z" fill="url(#gloss)"/>
      <rect x="298" y="480" width="604" height="454" rx="58" fill="#7E2F85" opacity="0.94"/>
      <rect x="298" y="958" width="604" height="118" rx="36" fill="#FFE0A8" opacity="0.96"/>
      
    <g transform="translate(600 352)">
      <ellipse cx="0" cy="0" rx="168" ry="82" fill="#D73330"/>
      <ellipse cx="0" cy="0" rx="152" ry="66" fill="#EA4C41" opacity="0.4"/>
      <text x="0" y="18" text-anchor="middle" fill="#FFFFFF" font-family="&quot;Arial Black&quot;, &quot;Segoe UI&quot;, sans-serif" font-size="72" font-weight="900">funny-frisch</text>
      <path d="M-126 48C-66 78 60 78 122 48" stroke="#7BC55C" stroke-width="16" stroke-linecap="round"/>
    </g>
    <text x="600" y="430" text-anchor="middle" fill="rgba(255,255,255,0.92)" font-family="&quot;Segoe UI&quot;, Arial, sans-serif" font-size="34" font-weight="700" letter-spacing="0.22em">CHIPSFRISCH</text>
  
      <text x="352" y="610" fill="#FFFFFF" font-family="&quot;Segoe UI&quot;, Arial, sans-serif" font-size="82" font-weight="800" letter-spacing="-0.02em"><tspan x="352" dy="0">Oriental</tspan></text>
      <text x="600" y="1035" text-anchor="middle" fill="#112035" font-family="&quot;Segoe UI&quot;, Arial, sans-serif" font-size="42" font-weight="800" letter-spacing="0.16em">AROMATISCH &amp; WARM</text>
      <g transform="translate(458 1088) rotate(-16) scale(0.95)">
    <ellipse cx="0" cy="0" rx="118" ry="84" fill="url(#chip)"/>
    <ellipse cx="-20" cy="-18" rx="46" ry="28" fill="#FFF6DE" opacity="0.55"/>
    <ellipse cx="22" cy="18" rx="80" ry="50" fill="#D39A4E" opacity="0.18"/>
  </g>
      <g transform="translate(572 1160) rotate(6) scale(1.02)">
    <ellipse cx="0" cy="0" rx="118" ry="84" fill="url(#chip)"/>
    <ellipse cx="-20" cy="-18" rx="46" ry="28" fill="#FFF6DE" opacity="0.55"/>
    <ellipse cx="22" cy="18" rx="80" ry="50" fill="#D39A4E" opacity="0.18"/>
  </g>
      <g transform="translate(690 1084) rotate(22) scale(0.9)">
    <ellipse cx="0" cy="0" rx="118" ry="84" fill="url(#chip)"/>
    <ellipse cx="-20" cy="-18" rx="46" ry="28" fill="#FFF6DE" opacity="0.55"/>
    <ellipse cx="22" cy="18" rx="80" ry="50" fill="#D39A4E" opacity="0.18"/>
  </g>
      
    <path d="M812 1018L830 1058L874 1064L840 1092L848 1136L812 1114L776 1136L784 1092L750 1064L794 1058L812 1018Z" fill="#F7CA4A"/>
    <circle cx="892" cy="1116" r="32" fill="#C96B29"/>
    <circle cx="926" cy="1078" r="18" fill="#E6A53C"/>
    <path d="M757 1160C789 1125 825 1110 869 1112" stroke="#86B84B" stroke-width="16" stroke-linecap="round"/>
  
      <rect x="314" y="1120" width="254" height="112" rx="32" fill="#8C3A8E" opacity="0.96"/>
      <text x="441" y="1192" text-anchor="middle" fill="#FFFFFF" font-family="&quot;Segoe UI&quot;, Arial, sans-serif" font-size="44" font-weight="800" letter-spacing="0.12em">FOODRANKER</text>
      <text x="600" y="1298" text-anchor="middle" fill="rgba(255,255,255,0.88)" font-family="&quot;Segoe UI&quot;, Arial, sans-serif" font-size="34" font-weight="700">Lokales, schnelles Packshot</text>
    </g>
    <defs>
      <linearGradient id="bagBody" x1="262" y1="170" x2="940" y2="1388" gradientUnits="userSpaceOnUse">
        <stop offset="0" stop-color="#E37A20"/>
        <stop offset="1" stop-color="#B24B12"/>
      </linearGradient>
    </defs>
  
</svg>
