<?xml version="1.0" encoding="UTF-8"?>
<svg width="1200" height="1600" viewBox="0 0 1200 1600" fill="none" xmlns="http://www.w3.org/2000/svg">
  <defs>
    <filter id="shadow" x="80" y="40" width="1040" height="1500" filterUnits="userSpaceOnUse" color-interpolation-filters="sRGB">
      <feDropShadow dx="0" dy="34" stdDeviation="30" flood-color="#06111F" flood-opacity="0.28"/>
    </filter>
    <linearGradient id="gloss" x1="260" y1="140" x2="940" y2="1320" gradientUnits="userSpaceOnUse">
      <stop offset="0" stop-color="#FFFFFF" stop-opacity="0.34"/>
      <stop offset="0.25" stop-color="#FFFFFF" stop-opacity="0.14"/>
      <stop offset="1" stop-color="#FFFFFF" stop-opacity="0"/>
    </linearGradient>
    <linearGradient id="chip" x1="0" y1="0" x2="0" y2="1">
      <stop offset="0" stop-color="#FFF0C8"/>
      <stop offset="1" stop-color="#E6B96F"/>
    </linearGradient>
  </defs>
  
    <ellipse cx="600" cy="1430" rx="232" ry="70" fill="#07111D" opacity="0.18"/>
    <g filter="url(#shadow)">
      <ellipse cx="600" cy="230" rx="252" ry="62" fill="#E7E9EC"/>
      <rect x="348" y="222" width="504" height="1080" rx="112" fill="url(#canBody)"/>
      <ellipse cx="600" cy="226" rx="252" ry="64" fill="#F8FAFC"/>
      <ellipse cx="600" cy="226" rx="224" ry="44" fill="#D8DDE4"/>
      <ellipse cx="600" cy="1296" rx="252" ry="64" fill="#7B3A16" opacity="0.24"/>
      <path d="M416 284C442 270 758 270 784 284C800 292 805 312 796 324C768 364 432 364 404 324C395 312 400 292 416 284Z" fill="rgba(255,255,255,0.18)"/>
      <circle cx="600" cy="478" r="124" fill="#F8E9A7"/>
      <ellipse cx="562" cy="456" rx="18" ry="14" fill="#0E1725"/>
      <ellipse cx="638" cy="456" rx="18" ry="14" fill="#0E1725"/>
      <path d="M540 520C574 500 626 500 660 520" stroke="#D26531" stroke-width="16" stroke-linecap="round"/>
      <path d="M502 514C532 548 564 554 600 554C636 554 668 548 698 514" stroke="#8B4B22" stroke-width="20" stroke-linecap="round"/>
      <text x="600" y="694" text-anchor="middle" fill="#FFFFFF" font-family="&quot;Arial Black&quot;, &quot;Segoe UI&quot;, sans-serif" font-size="108" font-weight="900">PRINGLES</text>
      <rect x="430" y="758" width="340" height="126" rx="42" fill="#C7352E"/>
      <text x="600" y="836" text-anchor="middle" fill="#FFFFFF" font-family="&quot;Segoe UI&quot;, Arial, sans-serif" font-size="48" font-weight="800" letter-spacing="0.14em">THE ORIGINAL</text>
      <text x="418" y="980" fill="#FFFFFF" font-family="&quot;Segoe UI&quot;, Arial, sans-serif" font-size="74" font-weight="800" letter-spacing="-0.02em"><tspan x="418" dy="0">Original</tspan></text>
      <g transform="translate(510 1168) rotate(-18) scale(0.88)">
    <ellipse cx="0" cy="0" rx="118" ry="84" fill="url(#chip)"/>
    <ellipse cx="-20" cy="-18" rx="46" ry="28" fill="#FFF6DE" opacity="0.55"/>
    <ellipse cx="22" cy="18" rx="80" ry="50" fill="#D39A4E" opacity="0.18"/>
  </g>
      <g transform="translate(622 1218) rotate(3) scale(0.98)">
    <ellipse cx="0" cy="0" rx="118" ry="84" fill="url(#chip)"/>
    <ellipse cx="-20" cy="-18" rx="46" ry="28" fill="#FFF6DE" opacity="0.55"/>
    <ellipse cx="22" cy="18" rx="80" ry="50" fill="#D39A4E" opacity="0.18"/>
  </g>
      <g transform="translate(728 1162) rotate(24) scale(0.86)">
    <ellipse cx="0" cy="0" rx="118" ry="84" fill="url(#chip)"/>
    <ellipse cx="-20" cy="-18" rx="46" ry="28" fill="#FFF6DE" opacity="0.55"/>
    <ellipse cx="22" cy="18" rx="80" ry="50" fill="#D39A4E" opacity="0.18"/>
  </g>
      
    <rect x="765" y="1075" width="28" height="28" rx="6" fill="#F7FBFF" transform="rotate(18 765 1075)"/>
    <rect x="824" y="1048" width="24" height="24" rx="5" fill="#F7FBFF" opacity="0.94" transform="rotate(-14 824 1048)"/>
    <rect x="866" y="1115" width="20" height="20" rx="4" fill="#F7FBFF" opacity="0.9" transform="rotate(12 866 1115)"/>
  
      <text x="600" y="1338" text-anchor="middle" fill="rgba(255,255,255,0.9)" font-family="&quot;Segoe UI&quot;, Arial, sans-serif" font-size="34" font-weight="700">Lokales, schnelles Packshot</text>
    </g>
    <defs>
      <linearGradient id="canBody" x1="348" y1="222" x2="852" y2="1302" gradientUnits="userSpaceOnUse">
        <stop offset="0" stop-color="#E3B82E"/>
        <stop offset="1" stop-color="#BD7B13"/>
      </linearGradient>
    </defs>
  
</svg>
