<svg xmlns="http://www.w3.org/2000/svg" viewBox="0 0 256 256" role="img" aria-labelledby="title desc">
  <title id="title">Produktplatzhalter Chips</title>
  <desc id="desc">Dunkelgraue Silhouette einer Chips-Tüte als Fallback-Bild.</desc>
  <g fill="none" fill-rule="evenodd">
    <path d="M82 48h92l20 30-18 130H80L62 78l20-30z" fill="#606A79"/>
    <path d="M82 48l16 24h60l16-24M80 208l18-18h60l18 18" stroke="#8791A3" stroke-linecap="round" stroke-linejoin="round" stroke-width="10"/>
    <path d="M106 112c10-14 34-14 44 0-8 14-36 14-44 0z" fill="#474F5D"/>
    <path d="M120 96c10 6 18 18 18 32 0 14-8 26-18 32-10-6-18-18-18-32 0-14 8-26 18-32z" fill="#4E5765"/>
    <path d="M118 104c8 4 14 13 14 24s-6 20-14 24c-8-4-14-13-14-24s6-20 14-24z" stroke="#8F99AA" stroke-width="6"/>
  </g>
</svg>
